<mxfile host="app.diagrams.net" modified="2024-06-07T10:13:29.392Z" agent="Mozilla/5.0 (Windows NT 10.0; Win64; x64) AppleWebKit/537.36 (KHTML, like Gecko) Chrome/125.0.0.0 Safari/537.36" etag="ZCGpVhF0l48vzdBm_JA-" version="24.5.1" type="github">
  <diagram name="Page-1" id="74e2e168-ea6b-b213-b513-2b3c1d86103e">
    <mxGraphModel dx="1195" dy="615" grid="0" gridSize="10" guides="1" tooltips="1" connect="1" arrows="1" fold="1" page="1" pageScale="1" pageWidth="1100" pageHeight="850" background="none" math="0" shadow="0">
      <root>
        <mxCell id="0" />
        <mxCell id="1" parent="0" />
        <mxCell id="C44f-9Xv0R-iDv7mBQcy-54" value="&lt;font style=&quot;font-size: 13px;&quot;&gt;Workflow&lt;/font&gt;" style="swimlane;html=1;childLayout=stackLayout;startSize=20;rounded=0;shadow=0;labelBackgroundColor=none;strokeWidth=1;fontFamily=Verdana;fontSize=8;align=center;" vertex="1" parent="1">
          <mxGeometry x="80" y="50" width="930" height="450" as="geometry" />
        </mxCell>
        <mxCell id="C44f-9Xv0R-iDv7mBQcy-55" value="Job Service" style="swimlane;html=1;startSize=20;dashed=1;" vertex="1" parent="C44f-9Xv0R-iDv7mBQcy-54">
          <mxGeometry y="20" width="280" height="430" as="geometry" />
        </mxCell>
        <mxCell id="C44f-9Xv0R-iDv7mBQcy-56" value="&lt;font style=&quot;font-size: 12px;&quot;&gt;Daily timer&lt;/font&gt;&lt;div&gt;&lt;span style=&quot;font-size: 12px;&quot;&gt;- Update terminated accounts list&lt;/span&gt;&lt;/div&gt;" style="rounded=1;whiteSpace=wrap;html=1;shadow=0;labelBackgroundColor=none;strokeWidth=1;fontFamily=Verdana;fontSize=8;align=center;" vertex="1" parent="C44f-9Xv0R-iDv7mBQcy-55">
          <mxGeometry x="50" y="80" width="150" height="70" as="geometry" />
        </mxCell>
        <mxCell id="C44f-9Xv0R-iDv7mBQcy-57" value="&lt;span style=&quot;font-size: 12px;&quot;&gt;Queue for&amp;nbsp;&lt;/span&gt;&lt;span style=&quot;font-size: 12px; background-color: initial;&quot;&gt;Terminate and notification&lt;/span&gt;" style="rounded=1;whiteSpace=wrap;html=1;shadow=0;labelBackgroundColor=none;strokeWidth=1;fontFamily=Verdana;fontSize=8;align=center;" vertex="1" parent="C44f-9Xv0R-iDv7mBQcy-55">
          <mxGeometry x="50" y="260" width="150" height="70" as="geometry" />
        </mxCell>
        <mxCell id="C44f-9Xv0R-iDv7mBQcy-58" value="" style="endArrow=classic;html=1;rounded=0;exitX=0.5;exitY=1;exitDx=0;exitDy=0;entryX=0.5;entryY=0;entryDx=0;entryDy=0;" edge="1" parent="C44f-9Xv0R-iDv7mBQcy-55" source="C44f-9Xv0R-iDv7mBQcy-56" target="C44f-9Xv0R-iDv7mBQcy-57">
          <mxGeometry width="50" height="50" relative="1" as="geometry">
            <mxPoint x="410" y="190" as="sourcePoint" />
            <mxPoint x="460" y="140" as="targetPoint" />
          </mxGeometry>
        </mxCell>
        <mxCell id="C44f-9Xv0R-iDv7mBQcy-59" value="3. push a message to queue to process" style="edgeLabel;html=1;align=center;verticalAlign=middle;resizable=0;points=[];" vertex="1" connectable="0" parent="C44f-9Xv0R-iDv7mBQcy-58">
          <mxGeometry x="0.0909" y="-1" relative="1" as="geometry">
            <mxPoint x="16" y="10" as="offset" />
          </mxGeometry>
        </mxCell>
        <mxCell id="C44f-9Xv0R-iDv7mBQcy-60" value="Sharedpoint/SFTP" style="swimlane;html=1;startSize=20;swimlaneLine=1;dashed=1;" vertex="1" parent="C44f-9Xv0R-iDv7mBQcy-54">
          <mxGeometry x="280" y="20" width="470" height="430" as="geometry" />
        </mxCell>
        <mxCell id="C44f-9Xv0R-iDv7mBQcy-61" value="&lt;font style=&quot;font-size: 12px;&quot;&gt;Server&lt;/font&gt;" style="rounded=1;whiteSpace=wrap;html=1;shadow=0;labelBackgroundColor=none;strokeWidth=1;fontFamily=Verdana;fontSize=8;align=center;" vertex="1" parent="C44f-9Xv0R-iDv7mBQcy-60">
          <mxGeometry x="200" y="80" width="120" height="70" as="geometry" />
        </mxCell>
        <mxCell id="C44f-9Xv0R-iDv7mBQcy-62" value="" style="endArrow=classic;html=1;rounded=0;edgeStyle=elbowEdgeStyle;exitX=1.006;exitY=0.393;exitDx=0;exitDy=0;entryX=-0.028;entryY=0.594;entryDx=0;entryDy=0;entryPerimeter=0;exitPerimeter=0;" edge="1" parent="C44f-9Xv0R-iDv7mBQcy-60" source="C44f-9Xv0R-iDv7mBQcy-57">
          <mxGeometry width="50" height="50" relative="1" as="geometry">
            <mxPoint x="-58.31999999999999" y="283.74" as="sourcePoint" />
            <mxPoint x="570.0000000000001" y="106.25999999999999" as="targetPoint" />
            <Array as="points">
              <mxPoint x="501.67999999999995" y="198.74" />
            </Array>
          </mxGeometry>
        </mxCell>
        <mxCell id="C44f-9Xv0R-iDv7mBQcy-63" value="4. get terminated account lists from db" style="edgeLabel;html=1;align=center;verticalAlign=middle;resizable=0;points=[];" vertex="1" connectable="0" parent="C44f-9Xv0R-iDv7mBQcy-62">
          <mxGeometry x="-0.3609" y="-4" relative="1" as="geometry">
            <mxPoint x="23" y="-4" as="offset" />
          </mxGeometry>
        </mxCell>
        <mxCell id="C44f-9Xv0R-iDv7mBQcy-64" value="" style="endArrow=classic;html=1;rounded=0;entryX=1;entryY=0.75;entryDx=0;entryDy=0;exitX=0;exitY=0.75;exitDx=0;exitDy=0;dashed=1;" edge="1" parent="C44f-9Xv0R-iDv7mBQcy-54" source="C44f-9Xv0R-iDv7mBQcy-61" target="C44f-9Xv0R-iDv7mBQcy-56">
          <mxGeometry width="50" height="50" relative="1" as="geometry">
            <mxPoint x="360" y="210" as="sourcePoint" />
            <mxPoint x="410" y="160" as="targetPoint" />
          </mxGeometry>
        </mxCell>
        <mxCell id="C44f-9Xv0R-iDv7mBQcy-65" value="user list" style="edgeLabel;html=1;align=center;verticalAlign=middle;resizable=0;points=[];" vertex="1" connectable="0" parent="C44f-9Xv0R-iDv7mBQcy-64">
          <mxGeometry x="0.25" y="3" relative="1" as="geometry">
            <mxPoint x="23" y="-3" as="offset" />
          </mxGeometry>
        </mxCell>
        <mxCell id="C44f-9Xv0R-iDv7mBQcy-66" style="edgeStyle=orthogonalEdgeStyle;rounded=0;orthogonalLoop=1;jettySize=auto;html=1;entryX=0;entryY=0.25;entryDx=0;entryDy=0;exitX=1;exitY=0.25;exitDx=0;exitDy=0;" edge="1" parent="C44f-9Xv0R-iDv7mBQcy-54" source="C44f-9Xv0R-iDv7mBQcy-56" target="C44f-9Xv0R-iDv7mBQcy-61">
          <mxGeometry relative="1" as="geometry">
            <mxPoint x="330" y="170" as="targetPoint" />
            <Array as="points" />
          </mxGeometry>
        </mxCell>
        <mxCell id="C44f-9Xv0R-iDv7mBQcy-67" value="1. Get file from Sharepoint/SFTP" style="edgeLabel;html=1;align=center;verticalAlign=middle;resizable=0;points=[];" vertex="1" connectable="0" parent="C44f-9Xv0R-iDv7mBQcy-66">
          <mxGeometry x="-0.2807" y="-3" relative="1" as="geometry">
            <mxPoint x="29" y="-3" as="offset" />
          </mxGeometry>
        </mxCell>
        <mxCell id="C44f-9Xv0R-iDv7mBQcy-68" value="Database" style="swimlane;html=1;startSize=20;dashed=1;" vertex="1" parent="1">
          <mxGeometry x="810" y="70" width="200" height="430" as="geometry" />
        </mxCell>
        <mxCell id="C44f-9Xv0R-iDv7mBQcy-69" value="" style="shape=cylinder3;whiteSpace=wrap;html=1;boundedLbl=1;backgroundOutline=1;size=15;" vertex="1" parent="C44f-9Xv0R-iDv7mBQcy-68">
          <mxGeometry x="100" y="70" width="60" height="80" as="geometry" />
        </mxCell>
        <mxCell id="C44f-9Xv0R-iDv7mBQcy-70" value="" style="endArrow=classic;html=1;rounded=1;edgeStyle=orthogonalEdgeStyle;curved=0;exitX=0.5;exitY=1;exitDx=0;exitDy=0;" edge="1" parent="1" source="C44f-9Xv0R-iDv7mBQcy-56" target="C44f-9Xv0R-iDv7mBQcy-69">
          <mxGeometry width="50" height="50" relative="1" as="geometry">
            <mxPoint x="210" y="250" as="sourcePoint" />
            <mxPoint x="580" y="280" as="targetPoint" />
            <Array as="points">
              <mxPoint x="205" y="256" />
              <mxPoint x="940" y="256" />
            </Array>
          </mxGeometry>
        </mxCell>
        <mxCell id="C44f-9Xv0R-iDv7mBQcy-71" value="2. save users need to be auto terminated, and action status" style="edgeLabel;html=1;align=center;verticalAlign=middle;resizable=0;points=[];" vertex="1" connectable="0" parent="C44f-9Xv0R-iDv7mBQcy-70">
          <mxGeometry x="-0.26" y="-1" relative="1" as="geometry">
            <mxPoint x="75" y="-2" as="offset" />
          </mxGeometry>
        </mxCell>
        <mxCell id="C44f-9Xv0R-iDv7mBQcy-72" value="" style="endArrow=classic;html=1;rounded=0;exitX=0;exitY=0.75;exitDx=0;exitDy=0;exitPerimeter=0;edgeStyle=elbowEdgeStyle;entryX=1;entryY=0.75;entryDx=0;entryDy=0;dashed=1;" edge="1" parent="1" source="C44f-9Xv0R-iDv7mBQcy-69" target="C44f-9Xv0R-iDv7mBQcy-57">
          <mxGeometry width="50" height="50" relative="1" as="geometry">
            <mxPoint x="490" y="260" as="sourcePoint" />
            <mxPoint x="540" y="210" as="targetPoint" />
            <Array as="points">
              <mxPoint x="880" y="290" />
            </Array>
          </mxGeometry>
        </mxCell>
        <mxCell id="C44f-9Xv0R-iDv7mBQcy-73" value="users that are yet to be terminated&amp;nbsp;" style="edgeLabel;html=1;align=center;verticalAlign=middle;resizable=0;points=[];" vertex="1" connectable="0" parent="C44f-9Xv0R-iDv7mBQcy-72">
          <mxGeometry x="0.36" y="2" relative="1" as="geometry">
            <mxPoint x="25" as="offset" />
          </mxGeometry>
        </mxCell>
        <mxCell id="C44f-9Xv0R-iDv7mBQcy-74" value="&lt;ul&gt;&lt;li&gt;terminate in batch&lt;/li&gt;&lt;li&gt;send email with list of users successfully terminated&lt;/li&gt;&lt;li&gt;send email with list of users failed to terminate &amp;amp; reason (if any)&lt;/li&gt;&lt;/ul&gt;" style="text;html=1;align=left;verticalAlign=middle;whiteSpace=wrap;rounded=0;" vertex="1" parent="1">
          <mxGeometry x="115" y="405" width="210" height="80" as="geometry" />
        </mxCell>
      </root>
    </mxGraphModel>
  </diagram>
</mxfile>
